<svg width="14" height="14" viewBox="0 0 14 14" fill="none" xmlns="http://www.w3.org/2000/svg">
  <g clip-path="url(#clip0_84_397)">
    <path fill-rule="evenodd" clip-rule="evenodd"
      d="M4.0394 1.61507C4.4266 1.46924 4.83709 1.39631 5.25019 1.39962V1.40013H5.28762C5.31153 1.40059 5.33546 1.4013 5.35938 1.40227L5.35946 1.40013H8.71952C9.22204 1.40013 9.65666 1.49673 9.99401 1.62833C10.2761 1.73822 10.4993 2.09942 10.4993 2.74971V5.19968C10.4993 6.10827 9.96951 6.90206 9.21154 7.50055C8.43677 8.11374 7.57801 8.40004 7.16928 8.40004V8.40006H6.99305C6.48576 8.39739 5.58679 8.09985 4.80227 7.49639C4.0289 6.8993 3.50049 6.10761 3.50049 5.20112V2.79105C3.50049 2.12046 3.73425 1.73337 4.0394 1.61507ZM3.53408 0.309585C4.08562 0.100282 4.67085 -0.00448814 5.25987 0.000147349H8.71952C9.32898 -0.00347043 9.93376 0.10668 10.5028 0.324943C11.204 0.59818 11.5772 1.16177 11.7565 1.75193C12.8457 1.79083 13.7127 2.49549 13.9414 3.52534C14.2052 4.71042 13.5767 6.04461 12.093 7.02389C11.8248 7.20122 11.5304 7.3035 11.2383 7.34985C10.9157 7.84363 10.5056 8.26211 10.0794 8.59883C9.33421 9.18858 8.44593 9.603 7.69979 9.74557V10.5H8.53966C9.05939 10.5 9.55785 10.7065 9.92536 11.0741C10.2929 11.4417 10.4993 11.9402 10.4993 12.46C10.4993 12.5069 10.4972 12.5537 10.493 12.6H10.4993C10.685 12.6 10.863 12.6738 10.9942 12.805C11.1255 12.9363 11.1992 13.1144 11.1992 13.3C11.1992 13.4857 11.1255 13.6637 10.9942 13.795C10.863 13.9263 10.685 14 10.4993 14H3.50049C3.31487 14 3.13685 13.9263 3.0056 13.795C2.87434 13.6637 2.80061 13.4857 2.80061 13.3C2.80061 13.1144 2.87434 12.9363 3.0056 12.805C3.13685 12.6738 3.31487 12.6 3.50049 12.6H3.50686C3.50263 12.5537 3.50049 12.5069 3.50049 12.46C3.50049 12.2026 3.55118 11.9478 3.64966 11.71C3.74814 11.4722 3.89249 11.2561 4.07446 11.0741C4.25644 10.8921 4.47247 10.7477 4.71023 10.6492C4.94799 10.5507 5.20282 10.5 5.46016 10.5H6.30003V9.72166C5.5372 9.56211 4.676 9.16652 3.94842 8.60447C3.50921 8.26621 3.0915 7.84604 2.76471 7.35033C2.47156 7.30422 2.17575 7.20184 1.90615 7.02385C0.42239 6.04457 -0.204706 4.71038 0.0584502 3.5253C0.287755 2.49237 1.15933 1.78658 2.25306 1.75156C2.44027 1.15231 2.82429 0.584385 3.53408 0.309585ZM11.8935 5.40795C12.5535 4.78283 12.6543 4.18412 12.5752 3.82844C12.506 3.51819 12.2771 3.25002 11.8991 3.17227V5.20108C11.8991 5.27077 11.8972 5.33973 11.8935 5.40795ZM2.10072 5.20112C2.10072 5.27078 2.10262 5.33971 2.10633 5.4079C1.44627 4.78279 1.34547 4.18408 1.42462 3.8284C1.49384 3.51815 1.72269 3.24998 2.10072 3.17223V5.20112ZM9.05857 12.559C9.03231 12.5853 8.99671 12.6 8.95959 12.6H5.04023C4.96325 12.6 4.90026 12.537 4.90026 12.46C4.90026 12.3115 4.95925 12.169 5.06425 12.064C5.16925 11.959 5.31167 11.9 5.46016 11.9H8.53966C8.61326 11.8997 8.6862 11.914 8.75425 11.9421C8.82231 11.9701 8.88414 12.0114 8.93619 12.0634C8.98824 12.1155 9.02947 12.1773 9.05751 12.2454C9.08555 12.3134 9.09984 12.3864 9.09956 12.46C9.09956 12.4971 9.08482 12.5327 9.05857 12.559Z"
      fill="currentColor" />
  </g>
  <defs>
    <clipPath id="clip0_84_397">
      <rect width="14" height="14" fill="white" />
    </clipPath>
  </defs>
</svg>