<svg width="24" height="24" viewBox="0 0 24 24" fill="none" xmlns="http://www.w3.org/2000/svg">
<path d="M6.002 15.999C5.47157 15.9985 4.96265 16.2087 4.5872 16.5834C4.21175 16.9581 4.00053 17.4666 4 17.997C3.99947 18.5274 4.20968 19.0364 4.58437 19.4118C4.95907 19.7872 5.46757 19.9985 5.998 19.999C6.52843 19.9995 7.03735 19.7893 7.4128 19.4146C7.78825 19.0399 7.99947 18.5314 8 18.001C8.00053 17.4706 7.79033 16.9616 7.41563 16.5862C7.04093 16.2108 6.53243 15.9995 6.002 15.999ZM6 4C5.46957 4 4.96086 4.21071 4.58579 4.58579C4.21071 4.96086 4 5.46957 4 6C4 6.53043 4.21071 7.03914 4.58579 7.41421C4.96086 7.78929 5.46957 8 6 8C11.514 8 16 12.486 16 18C16 18.5304 16.2107 19.0391 16.5858 19.4142C16.9609 19.7893 17.4696 20 18 20C18.5304 20 19.0391 19.7893 19.4142 19.4142C19.7893 19.0391 20 18.5304 20 18C20 10.28 13.72 4 6 4ZM6 10C5.46957 10 4.96086 10.2107 4.58579 10.5858C4.21071 10.9609 4 11.4696 4 12C4 12.5304 4.21071 13.0391 4.58579 13.4142C4.96086 13.7893 5.46957 14 6 14C8.205 14 10 15.794 10 18C10 18.5304 10.2107 19.0391 10.5858 19.4142C10.9609 19.7893 11.4696 20 12 20C12.5304 20 13.0391 19.7893 13.4142 19.4142C13.7893 19.0391 14 18.5304 14 18C14 13.589 10.411 10 6 10Z" fill="#F2F4F3"/>
</svg>
