<svg width="24" height="24" viewBox="0 0 24 24" fill="none" xmlns="http://www.w3.org/2000/svg">
<path fill-rule="evenodd" clip-rule="evenodd" d="M10.92 2.86795C11.03 2.67911 11.1877 2.52242 11.3772 2.41352C11.5667 2.30462 11.7814 2.24731 12 2.24731C12.2186 2.24731 12.4333 2.30462 12.6228 2.41352C12.8123 2.52242 12.97 2.67911 13.08 2.86795L15.875 7.66595L21.303 8.84195C21.5165 8.88835 21.7141 8.9899 21.8762 9.13648C22.0382 9.28307 22.159 9.46956 22.2265 9.67737C22.2939 9.88519 22.3058 10.1071 22.2608 10.3209C22.2158 10.5347 22.1155 10.733 21.97 10.8959L18.27 15.0369L18.83 20.562C18.8521 20.7795 18.8167 20.9991 18.7274 21.1987C18.6381 21.3983 18.498 21.571 18.3211 21.6995C18.1442 21.828 17.9367 21.9079 17.7192 21.9312C17.5018 21.9544 17.2821 21.9202 17.082 21.832L12 19.5919L6.918 21.832C6.71792 21.9202 6.49819 21.9544 6.28075 21.9312C6.06332 21.9079 5.85578 21.828 5.67887 21.6995C5.50196 21.571 5.36186 21.3983 5.27257 21.1987C5.18327 20.9991 5.14791 20.7795 5.17 20.562L5.73 15.0369L2.03 10.8969C1.88423 10.734 1.78376 10.5356 1.73861 10.3217C1.69347 10.1077 1.70524 9.88568 1.77274 9.6777C1.84025 9.46973 1.96112 9.2831 2.12331 9.13645C2.28549 8.98979 2.4833 8.88825 2.697 8.84195L8.125 7.66595L10.92 2.86795ZM12 4.98695L9.687 8.95895C9.59954 9.10887 9.48182 9.23894 9.34133 9.34086C9.20084 9.44278 9.04066 9.51433 8.871 9.55095L4.379 10.5239L7.441 13.9509C7.675 14.2129 7.788 14.5609 7.753 14.9099L7.29 19.483L11.496 17.6289C11.6548 17.559 11.8265 17.5228 12 17.5228C12.1735 17.5228 12.3452 17.559 12.504 17.6289L16.71 19.483L16.247 14.9099C16.2294 14.7373 16.248 14.5628 16.3015 14.3977C16.3551 14.2326 16.4424 14.0804 16.558 13.9509L19.621 10.5239L15.129 9.55095C14.9593 9.51433 14.7992 9.44278 14.6587 9.34086C14.5182 9.23894 14.4005 9.10887 14.313 8.95895L12 4.98695Z" fill="#F2F4F3"/>
</svg>
