<svg width="24" height="24" viewBox="0 0 24 24" fill="none" xmlns="http://www.w3.org/2000/svg">
<path fill-rule="evenodd" clip-rule="evenodd" d="M20.25 12C20.25 14.188 19.3808 16.2865 17.8336 17.8336C16.2865 19.3808 14.188 20.25 12 20.25C9.81196 20.25 7.71354 19.3808 6.16637 17.8336C4.61919 16.2865 3.75 14.188 3.75 12C3.75 9.81196 4.61919 7.71354 6.16637 6.16637C7.71354 4.61919 9.81196 3.75 12 3.75C14.188 3.75 16.2865 4.61919 17.8336 6.16637C19.3808 7.71354 20.25 9.81196 20.25 12ZM22.5 12C22.5 14.7848 21.3938 17.4555 19.4246 19.4246C17.4555 21.3938 14.7848 22.5 12 22.5C9.21523 22.5 6.54451 21.3938 4.57538 19.4246C2.60625 17.4555 1.5 14.7848 1.5 12C1.5 9.21523 2.60625 6.54451 4.57538 4.57538C6.54451 2.60625 9.21523 1.5 12 1.5C14.7848 1.5 17.4555 2.60625 19.4246 4.57538C21.3938 6.54451 22.5 9.21523 22.5 12ZM13.125 6.75C13.125 6.45163 13.0065 6.16548 12.7955 5.9545C12.5845 5.74353 12.2984 5.625 12 5.625C11.7016 5.625 11.4155 5.74353 11.2045 5.9545C10.9935 6.16548 10.875 6.45163 10.875 6.75V12C10.875 12.1747 10.9157 12.3469 10.9938 12.5031C11.0719 12.6593 11.1853 12.7952 11.325 12.9L14.325 15.15C14.4432 15.2386 14.5777 15.3031 14.7208 15.3398C14.8639 15.3765 15.0128 15.3846 15.1591 15.3637C15.3054 15.3428 15.4461 15.2933 15.5732 15.218C15.7003 15.1428 15.8114 15.0432 15.9 14.925C15.9886 14.8068 16.0531 14.6723 16.0898 14.5292C16.1265 14.3861 16.1346 14.2372 16.1137 14.0909C16.0928 13.9446 16.0433 13.8039 15.968 13.6768C15.8928 13.5497 15.7932 13.4386 15.675 13.35L13.125 11.4375V6.75Z" fill="#F2F4F3"/>
</svg>
