<svg width="16" height="16" viewBox="0 0 16 16" fill="none" xmlns="http://www.w3.org/2000/svg">
  <g clip-path="url(#clip0_141_365)">
    <path
      d="M6.24832 11.3158L1 14.2632V3.94737C1 3.16568 1.36863 2.416 2.0248 1.86326C2.68097 1.31053 3.57092 1 4.49888 1H7.99777C8.92573 1 9.81568 1.31053 10.4718 1.86326C11.128 2.416 11.4966 3.16568 11.4966 3.94737V6.89474M11.864 10.2916C12.0346 10.1479 12.2371 10.0339 12.46 9.95613C12.6829 9.87837 12.9218 9.83834 13.163 9.83834C13.4042 9.83834 13.6431 9.87837 13.866 9.95613C14.0889 10.0339 14.2914 10.1479 14.462 10.2916C14.6325 10.4353 14.7678 10.6059 14.8602 10.7936C14.9525 10.9814 15 11.1826 15 11.3858C15 11.589 14.9525 11.7902 14.8602 11.978C14.7678 12.1657 14.6325 12.3363 14.462 12.48L11.4966 15H8.87249V12.7895L11.864 10.2916Z"
      stroke="currentColor" stroke-width="2" stroke-linecap="round" stroke-linejoin="round" />
  </g>
  <defs>
    <clipPath id="clip0_141_365">
      <rect width="16" height="16" fill="currentColor" />
    </clipPath>
  </defs>
</svg>