<svg width="24" height="24" viewBox="0 0 16 16" fill="none" xmlns="http://www.w3.org/2000/svg">
  <path fill-rule="evenodd" clip-rule="evenodd"
    d="M5.75 5.74802C5.55109 5.74802 5.36032 5.66901 5.21967 5.52835C5.07902 5.3877 5 5.19694 5 4.99802V4.25102C4.60218 4.25102 4.22064 4.40906 3.93934 4.69036C3.65804 4.97167 3.5 5.3532 3.5 5.75102V6.75102H13.5V5.75102C13.5 5.3532 13.342 4.97167 13.0607 4.69036C12.7794 4.40906 12.3978 4.25102 12 4.25102V5.00102C12 5.19994 11.921 5.3907 11.7803 5.53135C11.6397 5.67201 11.4489 5.75102 11.25 5.75102C11.0511 5.75102 10.8603 5.67201 10.7197 5.53135C10.579 5.3907 10.5 5.19994 10.5 5.00102V4.25102H6.5V4.99802C6.5 5.19694 6.42098 5.3877 6.28033 5.52835C6.13968 5.66901 5.94891 5.74802 5.75 5.74802ZM10.5 2.75102H6.5V1.99902C6.5 1.80011 6.42098 1.60935 6.28033 1.46869C6.13968 1.32804 5.94891 1.24902 5.75 1.24902C5.55109 1.24902 5.36032 1.32804 5.21967 1.46869C5.07902 1.60935 5 1.80011 5 1.99902V2.75102C4.20435 2.75102 3.44129 3.06709 2.87868 3.6297C2.31607 4.19231 2 4.95537 2 5.75102V11.751C2 12.5467 2.31607 13.3097 2.87868 13.8723C3.44129 14.435 4.20435 14.751 5 14.751H12C12.7956 14.751 13.5587 14.435 14.1213 13.8723C14.6839 13.3097 15 12.5467 15 11.751V5.75102C15 4.95537 14.6839 4.19231 14.1213 3.6297C13.5587 3.06709 12.7956 2.75102 12 2.75102V2.00102C12 1.80211 11.921 1.61135 11.7803 1.47069C11.6397 1.33004 11.4489 1.25102 11.25 1.25102C11.0511 1.25102 10.8603 1.33004 10.7197 1.47069C10.579 1.61135 10.5 1.80211 10.5 2.00102V2.75102ZM3.5 8.25102V11.751C3.5 12.1488 3.65804 12.5304 3.93934 12.8117C4.22064 13.093 4.60218 13.251 5 13.251H12C12.3978 13.251 12.7794 13.093 13.0607 12.8117C13.342 12.5304 13.5 12.1488 13.5 11.751V8.25102H3.5Z"
    fill="currentColor" />
</svg>