<svg width="24" height="24" viewBox="0 0 16 16" fill="none" xmlns="http://www.w3.org/2000/svg">
  <path
    d="M5.375 2C5.14294 2 4.92038 2.09031 4.75628 2.25105C4.59219 2.4118 4.5 2.62981 4.5 2.85714C4.5 3.08447 4.59219 3.30249 4.75628 3.46323C4.92038 3.62398 5.14294 3.71429 5.375 3.71429H10.625C10.8571 3.71429 11.0796 3.62398 11.2437 3.46323C11.4078 3.30249 11.5 3.08447 11.5 2.85714C11.5 2.62981 11.4078 2.4118 11.2437 2.25105C11.0796 2.09031 10.8571 2 10.625 2H5.375ZM2.75 5.42857C2.75 5.20124 2.84219 4.98323 3.00628 4.82248C3.17038 4.66173 3.39294 4.57143 3.625 4.57143H12.375C12.6071 4.57143 12.8296 4.66173 12.9937 4.82248C13.1578 4.98323 13.25 5.20124 13.25 5.42857C13.25 5.6559 13.1578 5.87392 12.9937 6.03466C12.8296 6.19541 12.6071 6.28571 12.375 6.28571H3.625C3.39294 6.28571 3.17038 6.19541 3.00628 6.03466C2.84219 5.87392 2.75 5.6559 2.75 5.42857ZM1 8.85714C1 8.40249 1.18437 7.96645 1.51256 7.64496C1.84075 7.32347 2.28587 7.14286 2.75 7.14286H13.25C13.7141 7.14286 14.1592 7.32347 14.4874 7.64496C14.8156 7.96645 15 8.40249 15 8.85714V12.2857C15 12.7404 14.8156 13.1764 14.4874 13.4979C14.1592 13.8194 13.7141 14 13.25 14H2.75C2.28587 14 1.84075 13.8194 1.51256 13.4979C1.18437 13.1764 1 12.7404 1 12.2857V8.85714Z"
    fill="currentColor" />
</svg>