<svg width="24" height="24" viewBox="0 0 16 16" fill="none" xmlns="http://www.w3.org/2000/svg">
  <path fill-rule="evenodd" clip-rule="evenodd"
    d="M8 6.37678C8.53043 6.37678 9.03914 6.17079 9.41421 5.80412C9.78929 5.43745 10 4.94014 10 4.42159C10 3.90304 9.78929 3.40573 9.41421 3.03906C9.03914 2.67239 8.53043 2.46639 8 2.46639C7.46957 2.46639 6.96086 2.67239 6.58579 3.03906C6.21071 3.40573 6 3.90304 6 4.42159C6 4.94014 6.21071 5.43745 6.58579 5.80412C6.96086 6.17079 7.46957 6.37678 8 6.37678ZM8 7.84317C8.92826 7.84317 9.8185 7.48268 10.4749 6.84101C11.1313 6.19934 11.5 5.32905 11.5 4.42159C11.5 3.51413 11.1313 2.64383 10.4749 2.00216C9.8185 1.36049 8.92826 1 8 1C7.07174 1 6.1815 1.36049 5.52513 2.00216C4.86875 2.64383 4.5 3.51413 4.5 4.42159C4.5 5.32905 4.86875 6.19934 5.52513 6.84101C6.1815 7.48268 7.07174 7.84317 8 7.84317ZM9 9.04073C9.00278 8.86009 8.9334 8.68551 8.80662 8.55408C8.67983 8.42265 8.50562 8.34473 8.321 8.33686C8.21403 8.3337 8.10702 8.33207 8 8.33197C4.15 8.33197 1 10.2872 1 12.2424C1 12.8905 1.26339 13.5122 1.73223 13.9705C2.20107 14.4289 2.83696 14.6863 3.5 14.6863H5.75C5.94891 14.6863 6.13968 14.6091 6.28033 14.4716C6.42098 14.3341 6.5 14.1476 6.5 13.9531C6.5 13.7587 6.42098 13.5722 6.28033 13.4347C6.13968 13.2972 5.94891 13.22 5.75 13.22H3.5C3.23478 13.22 2.98043 13.117 2.79289 12.9336C2.60536 12.7503 2.5 12.5016 2.5 12.2424C2.5 12.0429 2.72 11.4515 3.82 10.816C4.838 10.2285 6.32 9.79836 8 9.79836C8.05867 9.79836 8.117 9.79902 8.175 9.80032C8.617 9.80814 9 9.47283 9 9.04073ZM12.59 9.34085C13.024 9.44056 13.366 9.7749 13.469 10.1992L10.646 12.958C10.4167 13.1825 10.1192 13.3283 9.798 13.3734L9.268 13.4468L9.343 12.9286C9.38921 12.6146 9.53834 12.3237 9.768 12.0996L12.59 9.34085ZM11.707 13.9942L14.775 10.9959C14.9188 10.855 14.9998 10.6642 15 10.4651C14.9997 9.76979 14.7171 9.10305 14.2142 8.6114C13.7113 8.11975 13.0292 7.84343 12.318 7.84317C12.1145 7.84316 11.9193 7.92189 11.775 8.06215L8.707 11.0624C8.24821 11.5112 7.95066 12.0933 7.859 12.7214L7.689 13.8847C7.66716 14.0348 7.68132 14.1878 7.73037 14.3316C7.77942 14.4754 7.86201 14.6061 7.97161 14.7134C8.08122 14.8206 8.21483 14.9015 8.3619 14.9495C8.50897 14.9976 8.66545 15.0116 8.819 14.9904L10.01 14.8242C10.6525 14.7346 11.248 14.4437 11.707 13.9952"
    fill="currentColor" />
</svg>