<svg width="24" height="24" viewBox="0 0 16 16" fill="none" xmlns="http://www.w3.org/2000/svg">
<path fill-rule="evenodd" clip-rule="evenodd" d="M13.5 8C13.5 9.45869 12.9205 10.8576 11.8891 11.8891C10.8576 12.9205 9.45869 13.5 8 13.5C6.54131 13.5 5.14236 12.9205 4.11091 11.8891C3.07946 10.8576 2.5 9.45869 2.5 8C2.5 6.54131 3.07946 5.14236 4.11091 4.11091C5.14236 3.07946 6.54131 2.5 8 2.5C9.45869 2.5 10.8576 3.07946 11.8891 4.11091C12.9205 5.14236 13.5 6.54131 13.5 8ZM15 8C15 9.85652 14.2625 11.637 12.9497 12.9497C11.637 14.2625 9.85652 15 8 15C6.14348 15 4.36301 14.2625 3.05025 12.9497C1.7375 11.637 1 9.85652 1 8C1 6.14348 1.7375 4.36301 3.05025 3.05025C4.36301 1.7375 6.14348 1 8 1C9.85652 1 11.637 1.7375 12.9497 3.05025C14.2625 4.36301 15 6.14348 15 8ZM8.91 10.303L6.011 11.108C5.85586 11.1513 5.692 11.1525 5.53621 11.1117C5.38041 11.0708 5.23827 10.9893 5.12433 10.8755C5.01039 10.7616 4.92874 10.6196 4.88774 10.4638C4.84675 10.308 4.84787 10.1442 4.891 9.989L5.697 7.089C5.78938 6.75652 5.96621 6.45359 6.2103 6.20967C6.4544 5.96575 6.75745 5.78914 7.09 5.697L9.99 4.892C10.1451 4.84873 10.309 4.84746 10.4648 4.88832C10.6206 4.92918 10.7627 5.0107 10.8767 5.12454C10.9906 5.23838 11.0723 5.38045 11.1133 5.5362C11.1543 5.69196 11.1531 5.85582 11.11 6.011L10.304 8.911C10.2117 9.24337 10.035 9.54621 9.79112 9.79012C9.54721 10.034 9.24437 10.2107 8.912 10.303M9 8C9 8.26522 8.89464 8.51957 8.70711 8.70711C8.51957 8.89464 8.26522 9 8 9C7.73478 9 7.48043 8.89464 7.29289 8.70711C7.10536 8.51957 7 8.26522 7 8C7 7.73478 7.10536 7.48043 7.29289 7.29289C7.48043 7.10536 7.73478 7 8 7C8.26522 7 8.51957 7.10536 8.70711 7.29289C8.89464 7.48043 9 7.73478 9 8Z" fill="currentColor"/>
</svg>
