<svg width="24" height="24" viewBox="0 0 16 16" fill="none" xmlns="http://www.w3.org/2000/svg">
  <path
    d="M9.33333 5.33333H8.33333V8.66667L11.1867 10.36L11.6667 9.55333L9.33333 8.16667V5.33333ZM9 2C7.4087 2 5.88258 2.63214 4.75736 3.75736C3.63214 4.88258 3 6.4087 3 8H1L3.64 10.6867L6.33333 8H4.33333C4.33333 6.76232 4.825 5.57534 5.70017 4.70017C6.57534 3.825 7.76232 3.33333 9 3.33333C10.2377 3.33333 11.4247 3.825 12.2998 4.70017C13.175 5.57534 13.6667 6.76232 13.6667 8C13.6667 9.23768 13.175 10.4247 12.2998 11.2998C11.4247 12.175 10.2377 12.6667 9 12.6667C7.71333 12.6667 6.54667 12.14 5.70667 11.2933L4.76 12.24C5.31441 12.8003 5.97489 13.2445 6.70288 13.5467C7.43088 13.8489 8.21179 14.003 9 14C10.5913 14 12.1174 13.3679 13.2426 12.2426C14.3679 11.1174 15 9.5913 15 8C15 6.4087 14.3679 4.88258 13.2426 3.75736C12.1174 2.63214 10.5913 2 9 2Z"
    fill="currentColor" />
</svg>