<svg width="12" height="12" viewBox="0 0 12 12" fill="none" xmlns="http://www.w3.org/2000/svg">
<g clip-path="url(#clip0_27_93)">
<path fill-rule="evenodd" clip-rule="evenodd" d="M3.63225 8.20831L3.48675 9.95956C3.48408 9.99009 3.49065 10.0207 3.5056 10.0475C3.52055 10.0742 3.54319 10.0959 3.57058 10.1096C3.59798 10.1234 3.62888 10.1286 3.65926 10.1245C3.68965 10.1205 3.71812 10.1075 3.741 10.0871L5.3985 8.61405L5.84025 8.62381L6 8.62531C7.27125 8.62531 8.31525 8.29531 9.015 7.74256C9.6825 7.21605 10.125 6.42255 10.125 5.25031C10.125 4.07806 9.6825 3.28531 9.015 2.75806C8.31525 2.20531 7.27125 1.87531 6 1.87531C4.72875 1.87531 3.68475 2.20531 2.985 2.75806C2.3175 3.28531 1.875 4.07806 1.875 5.25031C1.875 6.48631 2.367 7.30681 3.111 7.83631L3.63225 8.20831ZM4.488 10.9271L5.8155 9.74805C5.876 9.74955 5.9375 9.75031 6 9.75031C8.8995 9.75031 11.25 8.25031 11.25 5.25031C11.25 2.25031 8.8995 0.750305 6 0.750305C3.1005 0.750305 0.75 2.25031 0.75 5.25031C0.75 6.83806 1.4085 8.00581 2.45775 8.75281L2.3655 9.86581C2.34433 10.1203 2.3999 10.3753 2.52504 10.5979C2.65018 10.8206 2.83914 11.0006 3.06756 11.1148C3.29599 11.229 3.55339 11.2722 3.80657 11.2387C4.05975 11.2052 4.2971 11.0967 4.488 10.9271Z" fill="currentColor"/>
</g>
<defs>
<clipPath id="clip0_27_93">
<rect width="12" height="12" fill="white"/>
</clipPath>
</defs>
</svg>
