<svg width="24" height="24" viewBox="0 0 24 24" fill="none" xmlns="http://www.w3.org/2000/svg">
<path d="M17.625 4.6875C17.1595 4.68698 16.7038 4.82076 16.3125 5.07281V4.125C16.3126 3.52347 16.0902 2.94316 15.6882 2.4957C15.2861 2.04825 14.7329 1.76525 14.1348 1.70114C13.5366 1.63704 12.936 1.79636 12.4482 2.14846C11.9605 2.50055 11.6202 3.02056 11.4928 3.60844C11.1264 3.36001 10.6992 3.21607 10.2571 3.19207C9.81507 3.16807 9.37482 3.26492 8.98364 3.47222C8.59246 3.67952 8.26513 3.98944 8.03677 4.36871C7.80842 4.74799 7.68767 5.18229 7.68749 5.625V12.2813L6.98156 11.1469C6.65994 10.5861 6.12872 10.176 5.50475 10.0069C4.88078 9.83772 4.21518 9.92339 3.65437 10.245C3.09356 10.5666 2.68348 11.0978 2.51435 11.7218C2.34521 12.3458 2.43088 13.0114 2.75249 13.5722C5.69624 19.7813 7.36031 22.3125 12 22.3125C14.1375 22.31 16.1868 21.4598 17.6983 19.9483C19.2098 18.4368 20.06 16.3875 20.0625 14.25V7.125C20.0625 6.8049 19.9994 6.48794 19.877 6.19221C19.7545 5.89648 19.5749 5.62777 19.3486 5.40143C19.1222 5.17509 18.8535 4.99554 18.5578 4.87305C18.2621 4.75055 17.9451 4.6875 17.625 4.6875ZM18.9375 14.25C18.9353 16.0893 18.2036 17.8525 16.9031 19.1531C15.6025 20.4536 13.8392 21.1853 12 21.1875C10.0312 21.1875 8.76468 20.7141 7.61718 19.5516C6.35718 18.2813 5.20687 16.125 3.75937 13.0716L3.73781 13.0313C3.56376 12.7298 3.5166 12.3715 3.60671 12.0353C3.69681 11.699 3.9168 11.4123 4.21828 11.2383C4.51975 11.0642 4.87802 11.0171 5.21427 11.1072C5.55052 11.1973 5.8372 11.4173 6.01124 11.7188L6.02062 11.7347L7.77187 14.5472C7.83635 14.6512 7.933 14.7314 8.04716 14.7755C8.16132 14.8197 8.28677 14.8254 8.40446 14.7918C8.52215 14.7581 8.62567 14.6871 8.69931 14.5893C8.77295 14.4915 8.81268 14.3724 8.81249 14.25V5.625C8.81249 5.2769 8.95077 4.94307 9.19692 4.69692C9.44306 4.45078 9.7769 4.3125 10.125 4.3125C10.4731 4.3125 10.8069 4.45078 11.0531 4.69692C11.2992 4.94307 11.4375 5.2769 11.4375 5.625V11.25C11.4375 11.3992 11.4968 11.5423 11.6022 11.6477C11.7077 11.7532 11.8508 11.8125 12 11.8125C12.1492 11.8125 12.2923 11.7532 12.3977 11.6477C12.5032 11.5423 12.5625 11.3992 12.5625 11.25V4.125C12.5625 3.7769 12.7008 3.44307 12.9469 3.19692C13.1931 2.95078 13.5269 2.8125 13.875 2.8125C14.2231 2.8125 14.5569 2.95078 14.8031 3.19692C15.0492 3.44307 15.1875 3.7769 15.1875 4.125V11.25C15.1875 11.3992 15.2468 11.5423 15.3522 11.6477C15.4577 11.7532 15.6008 11.8125 15.75 11.8125C15.8992 11.8125 16.0423 11.7532 16.1477 11.6477C16.2532 11.5423 16.3125 11.3992 16.3125 11.25V7.125C16.3125 6.77691 16.4508 6.44307 16.6969 6.19692C16.9431 5.95078 17.2769 5.8125 17.625 5.8125C17.9731 5.8125 18.3069 5.95078 18.5531 6.19692C18.7992 6.44307 18.9375 6.77691 18.9375 7.125V14.25Z" fill="#F2F4F3"/>
</svg>
