<svg width="24" height="24" viewBox="0 0 16 16" fill="none" xmlns="http://www.w3.org/2000/svg">
  <path fill-rule="evenodd" clip-rule="evenodd"
    d="M6.39467 7.32906L7.56652 5.00886C8.1526 3.8705 8.80074 2.76719 9.50785 1.70421C10.5076 2.81999 11.4844 4.16001 12.2166 5.57156C12.9923 7.06853 13.4444 8.54949 13.4444 9.87669C13.4444 11.4004 12.507 12.8984 11.2117 13.7344C11.2725 13.4511 11.3037 13.144 11.305 12.813C11.305 11.473 10.6061 10.3187 10.1197 9.64926C9.80391 9.21932 9.45354 8.8175 9.0723 8.44805L9.04741 8.4267L9.03911 8.41815L9.03704 8.41388L9.036 8.41282C9.03289 8.41388 9.03289 8.41175 8 9.60975C8.29706 10.0495 8.63918 10.4551 9.02044 10.8195C9.40415 11.3897 9.75052 12.1008 9.75052 12.813C9.75052 13.6351 9.42593 14.1754 9.10963 14.5075C8.94474 14.6804 8.8203 14.9132 8.784 15.1481C8.76884 15.2414 8.76884 15.3367 8.784 15.43C8.79575 15.4976 8.81649 15.5624 8.84622 15.6243C8.96341 15.8646 9.20193 16.0194 9.46222 15.998C12.4033 15.7471 15 12.9336 15 9.87669C15 6.51437 12.7424 2.8958 10.4816 0.432528C10.3539 0.293919 10.1997 0.183966 10.0287 0.109555C9.85777 0.0351443 9.67374 -0.00212095 9.48815 9.31836e-05C9.26806 -0.00137449 9.05087 0.0518191 8.855 0.155164C8.65913 0.258509 8.49035 0.408958 8.36296 0.593756C7.56699 1.77407 6.83979 3.00199 6.18518 4.27105L5.19481 2.84348L5.17822 2.81999C5.08257 2.69042 4.95904 2.58545 4.81734 2.51332C4.67564 2.44118 4.51963 2.40386 4.36156 2.40427C4.20349 2.40469 4.04766 2.44283 3.90632 2.5157C3.76498 2.58857 3.64197 2.69419 3.54696 2.82427C2.42074 4.40238 1 6.6724 1 9.87669C1 12.9336 3.59674 15.7471 6.53778 15.998C6.79704 16.0194 7.03659 15.8646 7.15274 15.6243C7.18204 15.5628 7.20297 15.4974 7.21496 15.43C7.23035 15.3371 7.2307 15.2422 7.216 15.1492C7.17257 14.9064 7.05909 14.6828 6.89037 14.5075C6.57407 14.1765 6.25052 13.6351 6.25052 12.813C6.25052 12.1019 6.59585 11.3897 6.97956 10.8195L7.07289 10.6828C7.52711 10.0422 8 9.60975 8 9.60975L6.96607 8.41388H6.96296L6.95985 8.41709L6.95156 8.42456L6.92667 8.44698L6.85096 8.52172C6.49889 8.87079 6.17399 9.2478 5.87926 9.64926C5.39185 10.3177 4.69393 11.4719 4.69393 12.8119C4.69393 13.1429 4.72815 13.4504 4.78726 13.7334C3.49304 12.8984 2.55556 11.4004 2.55556 9.87669C2.55556 7.55862 3.43393 5.80646 4.36519 4.40345L4.91896 5.20212L6.39467 7.32906ZM8 9.60975L9.03393 8.41282L8 7.4668L6.96607 8.41388L8 9.60975Z"
    fill="currentColor" />
</svg>