<svg width="16" height="16" viewBox="0 0 12 12" fill="none" xmlns="http://www.w3.org/2000/svg">
<path fill-rule="evenodd" clip-rule="evenodd" d="M3.915 9.76573C3.80966 9.66026 3.7505 9.5173 3.7505 9.36823C3.7505 9.21917 3.80966 9.0762 3.915 8.97073L6.8925 5.99323L3.915 3.01573C3.81564 2.9091 3.76155 2.76807 3.76412 2.62234C3.76669 2.47661 3.82572 2.33758 3.92878 2.23452C4.03184 2.13146 4.17088 2.07242 4.31661 2.06985C4.46233 2.06728 4.60337 2.12137 4.71 2.22073L8.085 5.59573C8.19034 5.7012 8.24951 5.84417 8.24951 5.99323C8.24951 6.1423 8.19034 6.28526 8.085 6.39073L4.71 9.76573C4.60453 9.87107 4.46156 9.93024 4.3125 9.93024C4.16344 9.93024 4.02047 9.87107 3.915 9.76573Z" fill="currentColor"/>
</svg>
