<svg width="12" height="12" viewBox="0 0 12 12" fill="none" xmlns="http://www.w3.org/2000/svg">
<g clip-path="url(#clip0_24_74)">
<path fill-rule="evenodd" clip-rule="evenodd" d="M8.71152 5.33653C8.71152 5.77974 8.62422 6.21861 8.45461 6.62809C8.285 7.03756 8.0364 7.40962 7.723 7.72302C7.4096 8.03641 7.03755 8.28502 6.62807 8.45462C6.2186 8.62423 5.77973 8.71153 5.33652 8.71153C4.8933 8.71153 4.45443 8.62423 4.04496 8.45462C3.63549 8.28502 3.26343 8.03641 2.95003 7.72302C2.63663 7.40962 2.38803 7.03756 2.21842 6.62809C2.04881 6.21861 1.96152 5.77974 1.96152 5.33653C1.96152 4.44143 2.3171 3.58298 2.95003 2.95005C3.58297 2.31711 4.44141 1.96153 5.33652 1.96153C6.23162 1.96153 7.09007 2.31711 7.723 2.95005C8.35594 3.58298 8.71152 4.44143 8.71152 5.33653ZM8.09652 8.89153C7.1923 9.59351 6.05454 9.92451 4.91487 9.81714C3.77519 9.70976 2.71927 9.17209 1.96208 8.31358C1.20488 7.45507 0.80333 6.34026 0.839168 5.19609C0.875006 4.05193 1.34554 2.96444 2.15498 2.155C2.96442 1.34556 4.05192 0.875021 5.19608 0.839183C6.34024 0.803345 7.45505 1.2049 8.31356 1.96209C9.17208 2.71929 9.70975 3.77521 9.81712 4.91488C9.9245 6.05456 9.5935 7.19231 8.89152 8.09653L10.984 10.189C11.0393 10.2405 11.0836 10.3026 11.1144 10.3716C11.1451 10.4406 11.1616 10.5151 11.163 10.5906C11.1643 10.6662 11.1504 10.7412 11.1221 10.8112C11.0938 10.8813 11.0517 10.9449 10.9983 10.9983C10.9449 11.0517 10.8813 11.0938 10.8112 11.1221C10.7412 11.1504 10.6662 11.1643 10.5906 11.163C10.5151 11.1616 10.4406 11.1451 10.3716 11.1144C10.3026 11.0836 10.2405 11.0393 10.189 10.984L8.09652 8.89153Z" fill="#9088F4"/>
</g>
<defs>
<clipPath id="clip0_24_74">
<rect width="12" height="12" fill="white"/>
</clipPath>
</defs>
</svg>
