<svg width="12" height="12" viewBox="0 0 12 12" fill="none" xmlns="http://www.w3.org/2000/svg">
<g clip-path="url(#clip0_24_83)">
<path fill-rule="evenodd" clip-rule="evenodd" d="M5.39857 1.49927H6.59932C6.6391 1.49927 6.67725 1.51507 6.70538 1.5432C6.73351 1.57133 6.74932 1.60949 6.74932 1.64927C6.74932 3.00527 8.21782 3.85352 9.39232 3.17477C9.4266 3.15538 9.46713 3.15026 9.50516 3.16051C9.54319 3.17075 9.57566 3.19554 9.59557 3.22952L10.1971 4.27052C10.2167 4.30487 10.2219 4.34558 10.2117 4.38379C10.2014 4.422 10.1765 4.4546 10.1423 4.47452C8.96782 5.15252 8.96782 6.84752 10.1423 7.52627C10.1763 7.54618 10.2011 7.57865 10.2113 7.61668C10.2216 7.6547 10.2165 7.69523 10.1971 7.72952L9.59557 8.77052C9.57566 8.8045 9.54319 8.82929 9.50516 8.83953C9.46713 8.84977 9.4266 8.84465 9.39232 8.82527C8.21782 8.14652 6.74932 8.99402 6.74932 10.3493C6.74932 10.3889 6.73362 10.427 6.70565 10.4551C6.67768 10.4832 6.63972 10.4991 6.60007 10.4993H5.39932C5.35953 10.4993 5.32138 10.4835 5.29325 10.4553C5.26512 10.4272 5.24932 10.3891 5.24932 10.3493C5.24932 8.99327 3.78082 8.14577 2.60632 8.82377C2.57197 8.84339 2.53125 8.84864 2.49305 8.83839C2.45484 8.82813 2.42223 8.8032 2.40232 8.76902L1.80232 7.72802C1.78287 7.69383 1.77763 7.65336 1.78773 7.61534C1.79783 7.57733 1.82246 7.5448 1.85632 7.52477C3.03082 6.84602 3.03082 5.15102 1.85632 4.47227C1.82254 4.45237 1.79789 4.42003 1.78766 4.38218C1.77743 4.34433 1.78242 4.30398 1.80157 4.26977L2.40232 3.22802C2.42235 3.19396 2.45502 3.16919 2.49322 3.15908C2.53141 3.14897 2.57206 3.15434 2.60632 3.17402C3.78082 3.85277 5.24932 3.00452 5.24932 1.64852C5.24932 1.56602 5.31607 1.49927 5.39857 1.49927ZM4.12432 1.64927C4.12432 0.944268 4.69432 0.374268 5.39857 0.374268H6.59932C7.30432 0.374268 7.87432 0.944268 7.87432 1.64927C7.87454 1.76099 7.90412 1.87069 7.96009 1.96738C8.01607 2.06407 8.09647 2.14436 8.19324 2.20019C8.29002 2.25602 8.39976 2.28544 8.51149 2.28549C8.62321 2.28555 8.73299 2.25625 8.82982 2.20052C9.12249 2.03196 9.47009 1.98641 9.79631 2.07387C10.1225 2.16134 10.4007 2.37466 10.5698 2.66702L11.1713 3.70802C11.5231 4.31777 11.3138 5.09627 10.7048 5.44802C10.6079 5.50398 10.5275 5.58445 10.4716 5.68135C10.4157 5.77824 10.3862 5.88814 10.3862 6.00002C10.3862 6.11189 10.4157 6.2218 10.4716 6.31869C10.5275 6.41558 10.6079 6.49605 10.7048 6.55202C10.9972 6.72112 11.2105 6.99931 11.298 7.32553C11.3854 7.65175 11.3399 7.99934 11.1713 8.29202L10.5698 9.33302C10.4007 9.62538 10.1225 9.8387 9.79631 9.92616C9.47009 10.0136 9.12249 9.96808 8.82982 9.79952C8.73299 9.74379 8.62321 9.71448 8.51149 9.71454C8.39976 9.7146 8.29002 9.74402 8.19324 9.79985C8.09647 9.85568 8.01607 9.93596 7.96009 10.0327C7.90412 10.1293 7.87454 10.239 7.87432 10.3508C7.87432 11.055 7.30432 11.6258 6.60007 11.6258H5.39932C5.0613 11.6256 4.73719 11.4912 4.49824 11.2521C4.25929 11.013 4.12507 10.6888 4.12507 10.3508C4.12484 10.239 4.09526 10.1293 4.03929 10.0327C3.98332 9.93596 3.90291 9.85568 3.80614 9.79985C3.70937 9.74402 3.59962 9.7146 3.4879 9.71454C3.37617 9.71448 3.2664 9.74379 3.16957 9.79952C2.87689 9.96808 2.5293 10.0136 2.20308 9.92616C1.87686 9.8387 1.59867 9.62538 1.42957 9.33302L0.828067 8.29202C0.65951 7.99934 0.613963 7.65175 0.701424 7.32553C0.788885 6.99931 1.00221 6.72112 1.29457 6.55202C1.39126 6.496 1.47153 6.41556 1.52734 6.31874C1.58314 6.22192 1.61251 6.11214 1.61251 6.00039C1.61251 5.88865 1.58314 5.77886 1.52734 5.68205C1.47153 5.58523 1.39126 5.50478 1.29457 5.44877C1.00221 5.27967 0.788885 5.00148 0.701424 4.67526C0.613963 4.34904 0.65951 4.00144 0.828067 3.70877L1.42882 2.66702C1.59792 2.37466 1.87611 2.16134 2.20233 2.07387C2.52855 1.98641 2.87614 2.03196 3.16882 2.20052C3.26565 2.25625 3.37543 2.28555 3.48715 2.28549C3.59887 2.28544 3.70862 2.25602 3.80539 2.20019C3.90216 2.14436 3.98257 2.06407 4.03854 1.96738C4.09451 1.87069 4.12409 1.76099 4.12432 1.64927ZM7.12432 5.99927C7.12432 6.29764 7.00579 6.58378 6.79481 6.79476C6.58383 7.00574 6.29769 7.12427 5.99932 7.12427C5.70095 7.12427 5.4148 7.00574 5.20382 6.79476C4.99284 6.58378 4.87432 6.29764 4.87432 5.99927C4.87432 5.7009 4.99284 5.41475 5.20382 5.20377C5.4148 4.99279 5.70095 4.87427 5.99932 4.87427C6.29769 4.87427 6.58383 4.99279 6.79481 5.20377C7.00579 5.41475 7.12432 5.7009 7.12432 5.99927ZM8.24932 5.99927C8.24932 6.596 8.01226 7.1683 7.59031 7.59026C7.16835 8.01222 6.59605 8.24927 5.99932 8.24927C5.40258 8.24927 4.83028 8.01222 4.40833 7.59026C3.98637 7.1683 3.74932 6.596 3.74932 5.99927C3.74932 5.40253 3.98637 4.83023 4.40833 4.40828C4.83028 3.98632 5.40258 3.74927 5.99932 3.74927C6.59605 3.74927 7.16835 3.98632 7.59031 4.40828C8.01226 4.83023 8.24932 5.40253 8.24932 5.99927Z" fill="#9088F4"/>
</g>
<defs>
<clipPath id="clip0_24_83">
<rect width="12" height="12" fill="white"/>
</clipPath>
</defs>
</svg>
