<svg width="25" height="25" viewBox="0 0 25 25" fill="none" xmlns="http://www.w3.org/2000/svg">
<g clip-path="url(#clip0_138_235)">
<path d="M3.3025 0.406511C3.2779 0.434011 3.3332 0.526311 3.4834 0.704011C3.5815 0.817411 3.6428 0.936811 3.7164 1.14841C3.7715 1.30781 3.8362 1.46411 3.8607 1.49481C3.8975 1.54381 3.9003 1.53181 3.9034 1.38461V1.22211L4.1214 1.52251C4.4524 1.97931 4.65791 2.22171 4.7958 2.31981C4.86641 2.36581 4.9094 2.41171 4.891 2.41781C4.842 2.43311 4.4125 2.19701 4.2132 2.04381C4.112 1.96711 4.0172 1.90271 4.0018 1.90271C3.9865 1.90271 3.9374 1.85661 3.8945 1.80141C3.8546 1.74621 3.7597 1.66061 3.6892 1.61161C3.5175 1.49201 3.3365 1.32031 3.2935 1.23761C3.263 1.17611 3.168 1.13631 3.168 1.18541C3.168 1.23441 3.413 1.56241 3.603 1.76471C4.1855 2.38711 4.7806 2.69671 6.3718 3.19341C6.7091 3.29771 7.00651 3.40191 7.0341 3.42641C7.0587 3.44791 7.1078 3.46621 7.1415 3.46621C7.1721 3.46621 7.221 3.48141 7.2455 3.49671C7.2854 3.52121 7.2822 3.52771 7.2362 3.52771C7.1994 3.52771 7.1841 3.54571 7.1902 3.58251C7.1994 3.63771 7.3497 3.68701 7.6379 3.72691C7.7666 3.74531 7.7972 3.73931 7.7972 3.70251C7.7972 3.65351 7.7083 3.61951 7.5765 3.61951C7.5275 3.61951 7.4907 3.60441 7.4907 3.58911C7.4907 3.57071 7.5217 3.56411 7.5615 3.57031C7.5983 3.57951 7.72671 3.60091 7.8432 3.62231C8.1192 3.66831 8.1962 3.69911 8.1962 3.75731C8.1962 3.82171 8.2788 3.84931 8.3339 3.80331C8.3646 3.77571 8.3799 3.77591 8.3799 3.80051C8.3799 3.81881 8.395 3.83421 8.4103 3.83421C8.4287 3.83421 8.4413 3.81281 8.4413 3.78821C8.4413 3.73001 8.4104 3.72961 8.9255 3.80941C9.2321 3.85541 9.3455 3.88641 9.29951 3.90171C9.20151 3.93851 9.25671 3.98751 9.3947 3.98751C9.46521 3.98751 9.5142 4.00281 9.5142 4.02121C9.5142 4.04881 9.58461 4.05181 9.75941 4.03951C9.91881 4.02721 10.011 4.03021 10.0233 4.05171C10.0355 4.07011 10.0876 4.07921 10.1428 4.07001C10.1949 4.06081 10.3389 4.07341 10.4554 4.09481C10.762 4.15311 11.5867 4.19921 13.4324 4.26361C16.4154 4.36781 18.5894 4.59131 19.405 4.87951C19.7667 5.00821 20.3125 5.28431 20.4137 5.38851C20.5731 5.55711 20.6219 5.69511 20.6035 5.92191C20.5943 6.03541 20.5943 6.13681 20.6035 6.14601C20.6925 6.23501 20.889 6.06011 20.889 5.89151C20.889 5.85771 20.9529 5.77501 21.0357 5.70451C21.3667 5.41321 21.416 5.25051 21.3793 4.58511C21.3547 4.13751 21.3483 4.10691 21.1491 3.45081C20.8885 2.59231 20.8276 2.46051 20.5149 2.12941C20.147 1.74311 19.8126 1.52221 19.3557 1.36591C19.2454 1.32911 19.0123 1.24351 18.8345 1.17601C18.5862 1.07801 18.4083 1.03501 18.0465 0.982911C17.5345 0.909311 16.4339 0.857311 16.0905 0.891011C15.9679 0.903311 15.4773 0.891011 14.9407 0.857311C14.3307 0.823611 13.9567 0.811311 13.8678 0.829611C13.7912 0.845011 13.6593 0.857011 13.5734 0.860111C13.4477 0.860111 13.3897 0.878811 13.2824 0.958511C13.1567 1.05051 13.0675 1.07791 12.718 1.13621C12.1539 1.22821 11.789 1.30151 11.6357 1.35371C11.5161 1.39661 11.32 1.42431 11.0165 1.44271C10.1856 1.49481 9.7136 1.53791 9.6094 1.57171C9.53881 1.59311 9.2688 1.59911 8.8181 1.58991C8.2693 1.57761 8.1286 1.58391 8.101 1.61761C8.0734 1.64821 8.08551 1.65741 8.1591 1.65741C8.34 1.65741 9.9559 1.78321 9.9712 1.79841C9.9866 1.81381 9.6982 1.80141 8.8735 1.74931C8.6312 1.73391 8.4168 1.73071 8.4015 1.73991C8.3432 1.77671 7.9076 1.77061 7.4907 1.72771C6.9757 1.67561 6.4792 1.58971 6.0193 1.47321C5.8047 1.42111 5.5531 1.38161 5.3753 1.37241C5.0473 1.35711 4.6975 1.24341 4.2039 0.995111C3.8789 0.832611 3.8425 0.826711 3.8425 0.958511V1.05931L3.744 0.937111C3.6888 0.872711 3.6216 0.768211 3.594 0.706911C3.5388 0.590411 3.3331 0.378911 3.3025 0.406511ZM3.7609 3.59521C3.1912 3.62211 2.6671 4.06591 2.2909 4.85801C2.0671 5.33321 2.0274 5.51731 2.012 6.14901C1.9998 6.64561 2.0057 6.74701 2.0762 7.16091C2.2265 8.02241 2.2662 8.12341 2.582 8.43301C2.9162 8.76421 3.7474 9.21801 4.2104 9.32221C4.3698 9.35601 4.5568 9.39901 4.6243 9.41741C4.8818 9.48181 5.2343 9.50591 6.1111 9.51821C6.95421 9.53351 7.0247 9.53071 7.1381 9.47551C7.2178 9.43571 7.3867 9.40481 7.6289 9.38651C7.8312 9.36811 8.0454 9.34061 8.1037 9.32221C8.1619 9.30691 8.28781 9.29131 8.3797 9.29131C8.4748 9.29131 8.57 9.27311 8.5884 9.25471C8.6619 9.18121 9.0112 9.10441 9.3454 9.08601C9.5324 9.07681 9.70751 9.05871 9.7382 9.04331C9.8393 8.98821 9.7902 8.95741 9.6247 8.97581C9.5297 8.98501 9.43771 8.97881 9.40401 8.96041C9.35491 8.92971 9.37 8.92691 9.4865 8.92381C9.5631 8.92381 9.7134 8.91451 9.8207 8.90221C9.9862 8.88691 10.0049 8.87741 9.95891 8.84371C9.8455 8.76091 9.94361 8.73961 10.4525 8.73961C10.9093 8.73961 11.0411 8.71811 10.9062 8.66601C10.8787 8.65681 10.7649 8.64441 10.6545 8.64441C10.5411 8.64141 10.4921 8.63251 10.5411 8.62941C10.5932 8.62341 10.7039 8.60171 10.7928 8.58641C10.8787 8.56791 11.4183 8.54651 11.9886 8.54041C12.5588 8.53431 13.0428 8.52801 13.0643 8.52491C13.0919 8.52491 13.0981 8.50341 13.0859 8.46351C13.0736 8.42051 13.0798 8.40251 13.1135 8.40251C13.138 8.40251 13.1965 8.35351 13.2425 8.29521C13.3344 8.17571 13.3586 8.18151 13.3985 8.33791L13.4262 8.43911L13.6469 8.44851C13.8217 8.45461 13.8802 8.44551 13.9385 8.40251C13.9783 8.37191 14.0609 8.33801 14.1222 8.32571L14.2357 8.30411L14.2174 8.48231C14.199 8.62631 14.2022 8.65391 14.2389 8.64161C14.2635 8.63241 14.3611 8.60781 14.4592 8.58631L14.6341 8.55261L14.5666 8.46361C14.5236 8.41451 14.444 8.36561 14.3735 8.34731L14.2511 8.31631L14.4349 8.31031C14.535 8.30718 14.6352 8.30718 14.7353 8.31031C14.7997 8.31331 14.8488 8.30141 14.8488 8.28311C14.8488 8.26471 14.8306 8.24911 14.8122 8.24611C14.7907 8.24301 14.7232 8.23971 14.665 8.23661C14.6068 8.23061 14.5086 8.19681 14.4503 8.16311C14.3921 8.12631 14.3186 8.09611 14.291 8.09611C14.2603 8.09611 14.2357 8.08041 14.2357 8.06511C14.2357 8.04361 14.3277 8.03461 14.4902 8.04071C14.7385 8.04991 14.7416 8.04981 14.7508 8.13261C14.7631 8.22761 14.763 8.22761 14.8305 8.20011C14.8418 8.19577 14.8511 8.18748 14.8567 8.17679C14.8623 8.16611 14.8638 8.15375 14.861 8.14201C14.8426 8.09301 14.898 8.05271 14.944 8.08341C14.9623 8.09261 15.0358 8.10491 15.1033 8.11101C15.2688 8.12021 16.0751 8.18471 16.2836 8.20621C16.3939 8.21841 16.4429 8.23691 16.4429 8.26761C16.4429 8.31971 16.4799 8.32251 16.5259 8.27651C16.5504 8.25201 16.6701 8.25551 16.9613 8.28311C17.317 8.31681 17.363 8.32561 17.363 8.37771C17.363 8.41451 17.3843 8.43331 17.4334 8.43631C17.4702 8.43631 17.599 8.44841 17.7155 8.46071C17.8351 8.47301 17.9484 8.47881 17.9668 8.46971C17.9882 8.46351 18.0559 8.37181 18.1172 8.26761C18.2368 8.06831 18.338 7.94231 18.3779 7.94231C18.3932 7.94231 18.3959 7.96421 18.3868 7.98871C18.3745 8.01321 18.3838 8.03471 18.4022 8.03471C18.4237 8.03471 18.436 8.05911 18.4299 8.08671C18.4238 8.12341 18.4512 8.14491 18.5218 8.16021C18.6352 8.18481 18.6875 8.21841 18.6108 8.21841C18.5832 8.21841 18.5583 8.23671 18.5583 8.25821C18.5583 8.27971 18.7395 8.35661 19.0031 8.44241C19.2852 8.53741 19.4475 8.60471 19.4475 8.63231C19.4475 8.66291 19.3525 8.64151 19.0889 8.55261C18.4635 8.33801 18.1909 8.29201 18.1909 8.39931C18.1909 8.44531 18.2397 8.46691 18.4759 8.52211C18.6291 8.55891 18.7761 8.58631 18.8007 8.58631C18.8221 8.58631 18.8805 8.62011 18.9296 8.65991C18.9786 8.70291 19.2236 8.80391 19.4934 8.89291C19.7664 8.98491 20.0087 9.08291 20.0578 9.12591C20.1068 9.16571 20.1927 9.22111 20.2509 9.24251C20.4441 9.32531 20.7202 9.57341 20.9287 9.85241C21.2292 10.2571 21.226 10.2419 21.0604 10.2419C20.9838 10.2419 20.7658 10.2205 20.5757 10.1959C20.3857 10.1714 20.1467 10.1498 20.0457 10.1467C19.831 10.1406 18.0773 10.1745 17.4212 10.196L16.9763 10.2114L16.906 10.061C16.8662 9.97821 16.7527 9.83121 16.6515 9.73001C16.4768 9.55831 16.4678 9.55501 16.4279 9.61331C16.4034 9.64701 16.3111 9.77591 16.2222 9.89551L16.06 10.1191L15.8608 10.1256C15.7504 10.1256 15.6366 10.1287 15.6091 10.1256C15.5416 10.1196 15.5388 10.1561 15.6001 10.2696L15.6428 10.3553L15.3302 10.3769C14.4778 10.4351 12.6692 10.6589 12.0622 10.7847C11.9272 10.8123 11.6419 10.8337 11.3844 10.8367C10.9244 10.8428 10.8816 10.8551 10.5904 11.0237C10.5382 11.0513 10.4982 11.0576 10.4614 11.0392C10.4277 11.0177 10.3971 11.0238 10.3756 11.0514C10.3419 11.0912 10.2316 11.1094 9.4222 11.1953C9.2444 11.2137 8.9472 11.2537 8.75721 11.2843C8.426 11.3395 8.4073 11.3395 8.2326 11.2843C8.0486 11.2261 7.4754 11.1493 6.9848 11.1156L6.7088 11.094L6.5466 11.2412C6.4546 11.3209 6.3286 11.4589 6.2611 11.5478C6.1691 11.6735 6.1201 11.7138 6.0619 11.7138C5.9362 11.7138 4.8171 11.8881 4.0046 12.0353C3.1278 12.1947 2.7969 12.2257 2.5394 12.1735C2.2726 12.1184 2.2693 12.1152 2.2816 11.7779C2.2938 11.4928 2.2909 11.4838 2.2173 11.447C2.0487 11.3612 1.8863 11.4099 1.6656 11.6092C1.6136 11.6552 1.5523 11.6767 1.4664 11.6767C1.3959 11.6737 1.2671 11.7073 1.166 11.7564L0.985005 11.8394L0.994005 11.9987C1 12.0845 0.990805 12.1855 0.972405 12.2162C0.947905 12.253 0.941805 12.4156 0.954105 12.6854C0.966405 13.0134 0.957105 13.133 0.914305 13.2924L0.862305 13.4888L1.0094 13.6974C1.3037 14.1113 1.5124 14.4268 1.5124 14.4604C1.5124 14.4789 1.604 14.5773 1.7204 14.6784C2.2264 15.123 2.4411 15.2426 2.9378 15.3469C3.4651 15.4603 3.5509 15.4541 3.879 15.2794C4.0292 15.1966 4.2041 15.0829 4.2685 15.0216C4.3482 14.948 4.5752 14.8285 5.0105 14.6353C5.6881 14.3349 5.7736 14.3011 5.7736 14.341C5.7736 14.3532 5.81661 14.767 5.8688 15.2545C5.9761 16.2785 6.0099 17.2597 5.9639 18.014C5.9271 18.6057 5.8995 18.6883 5.4825 19.4731C4.8356 20.6903 4.0601 21.8678 3.4745 22.5208C3.3702 22.6404 3.2109 22.8458 3.122 22.9807C2.9534 23.2351 2.6405 23.5757 2.251 23.9252C2.1193 24.0447 2.0333 24.1458 2.0425 24.1703C2.0517 24.1948 2.1471 24.2437 2.2544 24.2805C2.3586 24.3203 2.4596 24.3635 2.478 24.3789C2.527 24.4279 2.5881 24.4092 2.815 24.2865L3.0357 24.1642L3.1248 24.2256C3.2321 24.2961 3.4254 24.3019 3.5879 24.2406C3.6523 24.2161 3.7811 24.1886 3.8762 24.1825C4.0662 24.1641 4.1888 24.1122 4.388 23.9589C4.4616 23.9037 4.5567 23.8516 4.60271 23.8394C4.6917 23.821 5.4612 23.0418 5.8721 22.5513C6.0008 22.4011 6.3227 22.0608 6.5925 21.7971C6.9696 21.4231 7.1382 21.2823 7.3528 21.1535C7.6624 20.9695 7.9076 20.7459 7.9382 20.614C7.9505 20.568 7.9902 20.4727 8.0301 20.4022C8.1251 20.2397 8.2325 19.823 8.2049 19.7187C8.1957 19.6758 8.1497 19.5717 8.1037 19.4857C8.024 19.3447 8.0182 19.2956 8.0029 18.9031C7.97531 18.2133 7.8649 17.8516 7.5154 17.309C7.3131 16.9963 7.2638 16.8859 7.1381 16.4812C6.92961 15.7852 6.8684 15.1319 6.9726 14.6199C7.0216 14.3654 7.0461 14.3316 7.2516 14.2121C7.3588 14.1477 7.5 14.0465 7.5675 13.9851L7.6931 13.8689L8.2879 13.8014C8.6159 13.7616 8.9837 13.7125 9.1002 13.688C9.2198 13.6635 9.4833 13.6083 9.68571 13.5685C9.89111 13.5255 10.1827 13.4521 10.333 13.403C10.4832 13.3509 10.6946 13.2893 10.805 13.2647C11.0196 13.2157 11.7522 13.1455 11.7767 13.1701C11.7859 13.1793 11.7952 13.6177 11.7922 14.1451C11.7922 14.9728 11.783 15.1966 11.7125 15.8067C11.5929 16.8522 11.5683 17.1799 11.5376 18.3327C11.51 19.4793 11.5011 19.5313 11.314 19.6662C11.1791 19.7643 11.0412 19.7464 10.6334 19.5655C10.4311 19.4765 10.0048 19.3015 9.68291 19.1727C9.36401 19.0439 8.9102 18.845 8.6802 18.7316C8.4472 18.6151 8.257 18.5288 8.257 18.538C8.257 18.5472 8.3735 18.6975 8.5176 18.8722C8.6616 19.047 8.7782 19.1972 8.7782 19.2064C8.7782 19.2156 8.7508 19.2252 8.714 19.2252C8.6588 19.2252 8.6556 19.2312 8.6985 19.2894C8.7261 19.3292 8.7354 19.3904 8.7262 19.4548C8.7139 19.5376 8.723 19.5654 8.7842 19.6053C8.8242 19.6329 8.88881 19.7094 8.92871 19.7769C8.96551 19.8412 9.02991 19.9239 9.06971 19.9545C9.1097 19.9852 9.1677 20.0589 9.2015 20.1172C9.2321 20.1754 9.3363 20.2826 9.4345 20.3562C9.5325 20.4298 9.6275 20.5249 9.6458 20.5648C9.6642 20.6108 9.7535 20.6781 9.85771 20.7303C10.0999 20.8529 10.4552 21.1656 10.5134 21.3035C10.5472 21.3894 10.6149 21.4569 10.8111 21.5857C10.9675 21.6899 11.2432 21.929 11.5498 22.2326C12.1078 22.7844 12.1385 22.8029 12.5923 22.7753C12.8866 22.7539 13.0339 22.6985 13.2087 22.5391C13.2792 22.4747 13.365 22.4075 13.3957 22.3891C13.4263 22.3707 13.5029 22.2819 13.5612 22.1899C13.6194 22.0949 13.7082 21.9967 13.7542 21.9691C13.883 21.8925 14.1129 21.5671 14.1129 21.4629C14.1129 21.3096 14.1711 21.2119 14.3735 21.0219C14.5513 20.8563 14.5884 20.8006 14.6988 20.5278C14.8705 20.1108 14.9314 19.8414 14.9866 19.3048C15.054 18.6426 15.0482 17.8425 14.9716 17.3428C14.8459 16.5272 14.3676 14.2552 14.2235 13.8014C14.1039 13.4244 13.9905 12.9338 13.9905 12.7927C13.9905 12.759 14.0545 12.7558 14.306 12.7712C14.536 12.7865 14.7168 12.7806 14.9805 12.7407C15.2932 12.6947 15.4007 12.6917 15.7319 12.7224C15.9434 12.7408 16.1242 12.762 16.1303 12.7712C16.1548 12.7926 16.6271 14.3287 16.7068 14.6414C16.8724 15.2822 16.8756 15.3284 16.9093 16.941C16.9246 17.7841 16.9397 18.7836 16.9459 19.1638C16.952 19.8045 16.9583 19.8749 17.0349 20.157C17.133 20.5157 17.2403 20.7489 17.461 21.0678C17.55 21.1935 17.6848 21.4142 17.7615 21.5552C17.9148 21.8404 18.1142 22.0762 18.3718 22.2724C18.709 22.533 19.037 22.7448 19.2394 22.8368C19.4816 22.9471 19.6776 23.1217 19.8708 23.3945C19.9505 23.5049 20.064 23.6554 20.1253 23.732C20.1866 23.8087 20.2631 23.9252 20.2969 23.9927C20.3551 24.1153 20.3735 24.1275 20.7047 24.2257C20.8579 24.2716 21.2809 24.2805 21.517 24.2407C21.6488 24.2191 21.6982 24.1887 21.9098 23.9833C22.1948 23.7073 22.3298 23.5143 22.3298 23.3763C22.3298 23.1617 22.3601 23.0973 22.4858 23.0482C22.5656 23.0175 22.6054 22.9809 22.6054 22.9441C22.6054 22.7509 22.4031 21.9718 22.2988 21.7694C22.2314 21.6345 21.3517 20.4454 20.6128 19.4858C19.8279 18.471 19.5518 18.0291 19.3894 17.5508C19.3373 17.3884 19.1413 16.2754 19.0186 15.4078C18.9297 14.7854 18.7578 14.1692 18.488 13.4855C18.396 13.2525 18.3316 13.0627 18.347 13.0627C18.4205 13.0627 19.9996 13.5042 20.0915 13.5502C20.1498 13.5809 20.3889 13.7092 20.6189 13.838C20.8489 13.9698 21.0726 14.0743 21.1124 14.0743C21.1584 14.0743 21.3514 14.1816 21.5784 14.3349L21.9679 14.5955L22.1704 14.58C22.4616 14.5524 22.5164 14.5402 22.6391 14.4544C22.8139 14.3348 22.9183 14.3164 23.0563 14.3808C23.323 14.5065 23.507 14.528 23.3446 14.4146C23.1024 14.2459 23.0779 14.163 23.2189 13.9514C23.3876 13.6939 23.4056 13.6757 23.5803 13.5868C23.8593 13.4458 23.8779 13.4123 23.9698 12.9094C24.0128 12.6642 24.0709 12.4246 24.0955 12.3756C24.166 12.2284 24.1508 12.1337 24.0313 12.0203C23.9699 11.962 23.8686 11.8299 23.8011 11.7287C23.7061 11.5815 23.6788 11.5112 23.6788 11.4039C23.6788 11.2843 23.6664 11.2599 23.5775 11.2047C23.5083 11.1622 23.4353 11.1263 23.3595 11.0973C23.2277 11.0513 23.0226 10.8338 23.0502 10.7725C23.062 10.7451 23.0732 10.7174 23.0839 10.6895C23.1085 10.6282 22.86 10.4933 22.6147 10.435C22.3695 10.3768 22.3726 10.3767 22.4155 10.3277C22.437 10.3001 22.4367 10.205 22.4183 10.0272C22.3263 9.18721 21.9862 8.59871 21.419 8.30131C21.2964 8.23691 21.1891 8.17251 21.18 8.15421C21.1217 8.06521 20.3982 7.78921 19.9997 7.70651C19.874 7.68201 19.6253 7.62081 19.4475 7.56871C19.2697 7.51971 18.9971 7.46711 18.8377 7.44871C18.3809 7.40571 17.7647 7.30171 17.5623 7.23731C17.4611 7.20661 17.222 7.15151 17.0288 7.11781C16.8357 7.08101 16.6701 7.04121 16.6608 7.02591C16.6486 7.00751 16.575 7.01031 16.4738 7.02871C16.3574 7.05021 16.1826 7.05041 15.9067 7.02591C15.689 7.00441 15.1494 6.99191 14.711 6.99491C14.0365 6.99801 13.8525 6.98921 13.5091 6.93401C13.2884 6.89721 12.9911 6.86941 12.8501 6.86941C12.5128 6.86631 11.5191 6.76521 11.697 6.74981C11.7246 6.74981 11.8165 6.73171 11.9023 6.71331C12.0433 6.68261 12.0527 6.67611 12.0251 6.61481C11.9945 6.55041 11.9793 6.54751 11.5471 6.55061C11.1791 6.55061 11.0932 6.56001 11.0656 6.59981C11.035 6.63971 11.0041 6.64261 10.8692 6.61811C10.7252 6.58751 10.7159 6.58131 10.7619 6.54451C10.8109 6.50771 10.8111 6.49851 10.7713 6.47091C10.7467 6.45561 10.7037 6.43991 10.6761 6.43991C10.6362 6.43991 8.7199 6.24991 7.9228 6.16721C7.7664 6.14881 7.62871 6.13071 7.6195 6.11841C7.6103 6.10921 7.62561 6.10301 7.6532 6.10301C7.68391 6.10301 7.7052 6.09061 7.7052 6.07531C7.7052 6.02931 7.5492 6.01731 7.3345 6.05091C7.1843 6.07241 7.1042 6.07221 7.0551 6.04771C6.9969 6.02311 7.0156 6.02041 7.1475 6.03271C7.4387 6.06331 7.3158 5.99261 7.0092 5.95571C6.84361 5.93431 6.672 5.91271 6.6291 5.90661C6.58109 5.89828 6.53461 5.88277 6.4912 5.86061C6.4606 5.84221 6.1233 5.78431 5.7432 5.73221C5.363 5.68011 4.93671 5.60311 4.7926 5.56021C4.2959 5.41921 3.8394 5.18921 3.5757 4.95321L3.4375 4.83081L3.4867 4.71411C3.5878 4.47191 3.7166 4.33091 3.9465 4.22051C4.2623 4.06721 4.4065 4.04251 5.0227 4.02411C5.5837 4.01191 5.7157 3.98761 5.6513 3.91401C5.6206 3.87101 5.1793 3.80341 4.9585 3.80341C4.8205 3.80341 4.477 3.73601 4.1612 3.64401C4.03138 3.60575 3.89612 3.58927 3.7609 3.59521ZM12.6106 6.54551C12.588 6.5447 12.5653 6.54641 12.5431 6.55061C12.3621 6.58131 12.2581 6.62401 12.1662 6.70061L12.0743 6.77421L12.2215 6.77751C12.3779 6.77751 12.4605 6.74691 12.574 6.64581C12.6453 6.58141 12.6578 6.54951 12.6106 6.54551ZM18.3868 7.49651C18.4251 7.49421 18.4682 7.50541 18.5494 7.52841C18.6414 7.55601 18.7424 7.56851 18.773 7.55941C18.8037 7.55011 18.8404 7.55611 18.8527 7.57761C18.868 7.60521 18.8222 7.60841 18.6689 7.59311C18.534 7.57771 18.4664 7.58051 18.4664 7.60201C18.4664 7.62041 18.5032 7.64201 18.5522 7.65121C18.776 7.70021 18.8129 7.72491 18.6197 7.70651C18.5094 7.69421 18.3437 7.68521 18.2517 7.68211C18.0923 7.68211 18.0833 7.68511 18.0741 7.76181C18.0649 7.83231 18.0434 7.84741 17.8931 7.87811C17.6878 7.91791 17.7156 7.92091 17.5623 7.85041C17.4243 7.78301 17.1205 7.70941 16.7433 7.65121C16.6023 7.62971 16.5321 7.61161 16.5812 7.60851C16.6333 7.60851 16.9154 7.63921 17.2098 7.68211C17.7555 7.75881 17.9086 7.77401 17.8749 7.74031C17.8657 7.73111 17.6266 7.67591 17.3415 7.62071L16.8264 7.51951L17.1268 7.51621C17.3905 7.51321 17.4366 7.52261 17.5163 7.58091C17.5838 7.62991 17.6174 7.63921 17.6419 7.61461C17.6634 7.59321 17.7552 7.58661 17.8993 7.59591C18.0924 7.61121 18.1445 7.60541 18.2518 7.54711C18.3146 7.51491 18.3484 7.49881 18.3868 7.49651ZM14.0402 8.00931C14.0554 8.00881 14.0686 8.01151 14.0762 8.01921C14.0886 8.02841 14.0764 8.04981 14.0519 8.06511C13.9937 8.10191 13.9691 8.10211 13.9446 8.06841C13.9308 8.04311 13.9945 8.01081 14.0402 8.00931ZM19.0271 8.09931C19.0328 8.09731 19.0429 8.10981 19.0613 8.13591C19.0827 8.16351 19.1286 8.18791 19.1593 8.18791C19.2083 8.18791 19.2117 8.19391 19.1719 8.21841C19.1474 8.23371 19.1197 8.24601 19.1105 8.24601C19.0492 8.23991 19.0186 8.20321 19.0186 8.14801C19.0201 8.11741 19.0213 8.10121 19.0271 8.09931ZM15.0756 8.27981C15.0143 8.27981 14.9716 8.33181 14.9716 8.40541C14.9716 8.42071 15.0418 8.43301 15.1276 8.43301C15.2748 8.43301 15.2812 8.43001 15.2444 8.38101C15.1831 8.30131 15.1461 8.27981 15.0756 8.27981ZM21.2657 10.1102C21.2872 10.101 21.3395 10.1222 21.3824 10.1528C21.4499 10.2049 21.4498 10.2112 21.3946 10.2081C21.3088 10.2081 21.2106 10.1317 21.2657 10.1102Z" fill="currentColor"/>
</g>
<defs>
<clipPath id="clip0_138_235">
<rect width="24" height="24" fill="white" transform="translate(0.5 0.404053)"/>
</clipPath>
</defs>
</svg>
