<svg width="16" height="16" viewBox="0 0 12 12" fill="none" xmlns="http://www.w3.org/2000/svg">
<path fill-rule="evenodd" clip-rule="evenodd" d="M6.63054 4.23405L6.89379 4.8888L7.59879 4.9368L9.99654 5.09955L8.15154 6.6408L7.61004 7.09305L7.78254 7.77855L8.36904 10.1096L6.33354 8.83155L5.73504 8.4558L5.13654 8.8308L3.10104 10.1096L3.68754 7.77855L3.86004 7.09305L3.31779 6.6408L1.47279 5.09955L3.87129 4.9368L4.57629 4.8888L4.83879 4.2333L5.73504 2.0028L6.63054 4.23405ZM0.838288 4.01505L3.79554 3.81405L4.89954 1.0638C5.20254 0.310804 6.26754 0.310804 6.57054 1.0638L7.67454 3.81405L10.6318 4.01505C11.4418 4.0698 11.7703 5.08305 11.1478 5.60355L8.87379 7.50405L9.59679 10.3781C9.79479 11.1656 8.93229 11.7911 8.24529 11.3606L5.73504 9.78405L3.22479 11.3598C2.53779 11.7911 1.67529 11.1648 1.87329 10.3781L2.59629 7.50405L0.322288 5.60355C-0.300212 5.08305 0.0290384 4.0698 0.838288 4.01505Z" fill="currentColor"/>
</svg>
