<svg width="16" height="16" viewBox="0 0 16 16" fill="none" xmlns="http://www.w3.org/2000/svg">
<path fill-rule="evenodd" clip-rule="evenodd" d="M8.92269 3.24138H7.07639C6.95397 3.24138 6.83657 3.28498 6.75001 3.36258C6.66345 3.44018 6.61482 3.54543 6.61482 3.65517V4.06897H9.38426V3.65517C9.38426 3.54543 9.33563 3.44018 9.24907 3.36258C9.16251 3.28498 9.0451 3.24138 8.92269 3.24138ZM10.769 4.06897V3.65517C10.769 3.21619 10.5745 2.79519 10.2282 2.48479C9.88197 2.17438 9.41235 2 8.92269 2H7.07639C6.58672 2 6.11711 2.17438 5.77086 2.48479C5.42461 2.79519 5.23009 3.21619 5.23009 3.65517V4.06897H2.69236C2.50874 4.06897 2.33263 4.13436 2.20279 4.25076C2.07294 4.36716 2 4.52504 2 4.68966C2 4.85427 2.07294 5.01215 2.20279 5.12855C2.33263 5.24495 2.50874 5.31034 2.69236 5.31034H2.98038L3.27302 11.6207C3.3028 12.2608 3.60742 12.8658 4.1232 13.3092C4.63898 13.7526 5.326 14.0001 6.04062 14H9.95938C10.6738 13.9999 11.3606 13.7523 11.8762 13.3089C12.3918 12.8655 12.6963 12.2606 12.7261 11.6207L13.0196 5.31034H13.3076C13.4913 5.31034 13.6674 5.24495 13.7972 5.12855C13.9271 5.01215 14 4.85427 14 4.68966C14 4.52504 13.9271 4.36716 13.7972 4.25076C13.6674 4.13436 13.4913 4.06897 13.3076 4.06897H10.769ZM11.633 5.31034H4.36603L4.65682 11.5686C4.67159 11.8887 4.82385 12.1913 5.08176 12.4131C5.33966 12.6349 5.68323 12.7587 6.04062 12.7586H9.95938C10.3166 12.7585 10.6599 12.6346 10.9177 12.4128C11.1754 12.191 11.3275 11.8885 11.3423 11.5686L11.633 5.31034ZM5.92246 6.96552V11.1034C5.92246 11.2681 5.9954 11.4259 6.12524 11.5423C6.25509 11.6587 6.43119 11.7241 6.61482 11.7241C6.79844 11.7241 6.97455 11.6587 7.10439 11.5423C7.23423 11.4259 7.30718 11.2681 7.30718 11.1034V6.96552C7.30718 6.8009 7.23423 6.64303 7.10439 6.52662C6.97455 6.41022 6.79844 6.34483 6.61482 6.34483C6.43119 6.34483 6.25509 6.41022 6.12524 6.52662C5.9954 6.64303 5.92246 6.8009 5.92246 6.96552ZM9.38426 6.34483C9.56789 6.34483 9.74399 6.41022 9.87383 6.52662C10.0037 6.64303 10.0766 6.8009 10.0766 6.96552V11.1034C10.0766 11.2681 10.0037 11.4259 9.87383 11.5423C9.74399 11.6587 9.56789 11.7241 9.38426 11.7241C9.20064 11.7241 9.02453 11.6587 8.89469 11.5423C8.76485 11.4259 8.6919 11.2681 8.6919 11.1034V6.96552C8.6919 6.8009 8.76485 6.64303 8.89469 6.52662C9.02453 6.41022 9.20064 6.34483 9.38426 6.34483Z" fill="currentColor"/>
</svg>
