<svg width="32" height="32" viewBox="0 0 32 32" fill="none" xmlns="http://www.w3.org/2000/svg">
  <rect width="32" height="32" rx="16" fill="#9088F4" />
  <path
    d="M18.7672 27.7931C18.9063 27.9128 19.121 27.7951 19.0979 27.613C18.6083 23.7539 19.8238 19.9774 22.948 16.2915C26.0757 13.2802 26.697 9.84283 25.7208 6.13328C25.6728 5.95093 25.4191 5.93574 25.3375 6.10573C23.9495 8.99704 21.156 11.015 18.7128 12.86C16.1758 14.7759 12.0085 21.9748 18.7672 27.7931Z"
    stroke="black" stroke-width="1.2" stroke-linecap="round" stroke-linejoin="round" />
  <path
    d="M10.9943 5.15827C10.8584 5.02515 10.6418 4.99648 10.4904 5.11166C5.81775 8.66536 5.6171 20.9281 11.4961 27.3827C11.7841 27.6988 12.2836 27.3543 12.1671 26.9428C10.2882 20.3081 14.1665 11.4704 20.3381 7.2379C20.7208 6.9755 20.4874 6.34693 20.0491 6.49903C16.1819 7.84098 15.848 9.91152 10.9943 5.15827Z"
    stroke="black" stroke-width="1.2" stroke-linecap="round" stroke-linejoin="round" />
</svg>