<svg width="32" height="32" viewBox="0 0 32 32" fill="none" xmlns="http://www.w3.org/2000/svg">
  <rect width="32" height="32" rx="16" fill="#9088F4" />
  <path
    d="M18.4813 24.2868C18.619 24.4081 18.832 24.2893 18.8111 24.107C18.4809 21.2196 19.4112 18.3933 21.7501 15.6339C24.0884 13.3826 24.582 10.8178 23.8896 8.05089C23.8438 7.86796 23.5895 7.8522 23.5047 8.02061C22.4317 10.1513 20.3546 11.6529 18.5338 13.0279C16.6189 14.4739 13.4812 19.8828 18.4813 24.2868Z"
    stroke="black" stroke-linecap="round" stroke-linejoin="round" />
  <path
    d="M12.7284 7.23396C12.5921 7.1012 12.3763 7.07387 12.2271 7.19193C8.81541 9.89161 8.62182 18.7838 12.7689 23.7315C13.0436 24.0592 13.5516 23.7205 13.455 23.3039C12.3468 18.5243 14.9761 12.4139 19.2113 9.16274C19.5793 8.88022 19.334 8.26429 18.9061 8.4436C16.5642 9.42501 16.0754 10.4946 12.7284 7.23396Z"
    stroke="black" stroke-linecap="round" stroke-linejoin="round" />
</svg>